<mxfile host="app.diagrams.net" modified="2022-07-28T08:39:08.489Z" agent="5.0 (Macintosh; Intel Mac OS X 10_15_7) AppleWebKit/537.36 (KHTML, like Gecko) Chrome/103.0.0.0 Safari/537.36" etag="5XpV-42W9E7_buTSOG4w" version="20.2.1" type="github">
  <diagram id="RlK4eOglbqxfFXshm7mn" name="第 1 页">
    <mxGraphModel dx="1219" dy="1056" grid="1" gridSize="10" guides="1" tooltips="1" connect="1" arrows="1" fold="1" page="1" pageScale="1" pageWidth="1169" pageHeight="1654" math="0" shadow="0">
      <root>
        <mxCell id="0" />
        <mxCell id="1" parent="0" />
        <mxCell id="qbdrgHgY3PGsCr69W33U-11" style="edgeStyle=orthogonalEdgeStyle;rounded=0;orthogonalLoop=1;jettySize=auto;html=1;entryX=0.5;entryY=0;entryDx=0;entryDy=0;fontSize=18;strokeWidth=3;" edge="1" parent="1" source="qbdrgHgY3PGsCr69W33U-2" target="qbdrgHgY3PGsCr69W33U-9">
          <mxGeometry relative="1" as="geometry" />
        </mxCell>
        <mxCell id="qbdrgHgY3PGsCr69W33U-2" value="&lt;b&gt;&lt;font style=&quot;font-size: 26px;&quot;&gt;Process A&lt;/font&gt;&lt;/b&gt;" style="rounded=1;whiteSpace=wrap;html=1;fillColor=#60a917;fontColor=#ffffff;strokeColor=#2D7600;" vertex="1" parent="1">
          <mxGeometry x="150" y="410" width="140" height="70" as="geometry" />
        </mxCell>
        <mxCell id="qbdrgHgY3PGsCr69W33U-5" value="&lt;b&gt;&lt;font style=&quot;font-size: 26px;&quot;&gt;Process B&lt;/font&gt;&lt;/b&gt;" style="rounded=1;whiteSpace=wrap;html=1;fillColor=#1ba1e2;fontColor=#ffffff;strokeColor=#006EAF;" vertex="1" parent="1">
          <mxGeometry x="640" y="410" width="140" height="70" as="geometry" />
        </mxCell>
        <mxCell id="qbdrgHgY3PGsCr69W33U-6" value="" style="endArrow=none;html=1;rounded=0;fontSize=26;strokeWidth=3;" edge="1" parent="1">
          <mxGeometry width="50" height="50" relative="1" as="geometry">
            <mxPoint x="30" y="560" as="sourcePoint" />
            <mxPoint x="1150" y="560" as="targetPoint" />
          </mxGeometry>
        </mxCell>
        <mxCell id="qbdrgHgY3PGsCr69W33U-7" value="&lt;span style=&quot;font-size: 18px;&quot;&gt;User Space&lt;/span&gt;" style="text;html=1;align=center;verticalAlign=middle;resizable=0;points=[];autosize=1;strokeColor=none;fillColor=none;fontSize=26;" vertex="1" parent="1">
          <mxGeometry x="20" y="520" width="120" height="40" as="geometry" />
        </mxCell>
        <mxCell id="qbdrgHgY3PGsCr69W33U-8" value="Kernel Space" style="text;html=1;align=center;verticalAlign=middle;resizable=0;points=[];autosize=1;strokeColor=none;fillColor=none;fontSize=18;" vertex="1" parent="1">
          <mxGeometry x="1030" y="560" width="130" height="40" as="geometry" />
        </mxCell>
        <mxCell id="qbdrgHgY3PGsCr69W33U-9" value="&lt;b&gt;&lt;font style=&quot;font-size: 26px;&quot;&gt;Process A&lt;/font&gt;&lt;/b&gt;" style="rounded=1;whiteSpace=wrap;html=1;dashed=1;strokeWidth=2;" vertex="1" parent="1">
          <mxGeometry x="360" y="650" width="140" height="70" as="geometry" />
        </mxCell>
      </root>
    </mxGraphModel>
  </diagram>
</mxfile>
